HIERARCHY
ROOT hip
{
  OFFSET 0.0 0.0 0.0
  CHANNELS 6 Xposition Yposition Zposition Zrotation Yrotation Xrotation
  JOINT abdomen
  {
    OFFSET 0.0 20.6881 -0.73152
    CHANNELS 3 Zrotation Xrotation Yrotation
    JOINT chest
    {
      OFFSET 0.0 11.7043 -0.48768
      CHANNELS 3 Zrotation Xrotation Yrotation
      JOINT neck
      {
        OFFSET 0.0 22.1894 -2.19456
        CHANNELS 3 Zrotation Xrotation Yrotation
        JOINT head
        {
          OFFSET -0.24384 7.07133 1.2192
          CHANNELS 3 Zrotation Xrotation Yrotation
          JOINT leftEye
          {
            OFFSET 4.14528 8.04674 8.04672
            CHANNELS 3 Zrotation Xrotation Yrotation
            End Site
            {
              OFFSET 1.0 0.0 0.0
            }
          }
          JOINT rightEye
          {
            OFFSET -3.6576 8.04674 8.04672
            CHANNELS 3 Zrotation Xrotation Yrotation
            End Site
            {
              OFFSET 1.0 0.0 0.0
            }
          }
        }
      }
      JOINT rCollar
      {
        OFFSET -2.68224 19.2634 -4.8768
        CHANNELS 3 Zrotation Xrotation Yrotation
        JOINT rShldr
        {
          OFFSET -8.77824 -1.95073 1.46304
          CHANNELS 3 Zrotation Xrotation Yrotation
          JOINT rForeArm
          {
            OFFSET -28.1742 -1.7115 0.48768
            CHANNELS 3 Zrotation Xrotation Yrotation
            JOINT rHand
            {
              OFFSET -22.5879 0.773209 7.07136
              CHANNELS 3 Zrotation Xrotation Yrotation
              JOINT rThumb1
              {
                OFFSET -1.2192 -0.487915 3.41376
                CHANNELS 3 Zrotation Xrotation Yrotation
                JOINT rThumb2
                {
                  OFFSET -3.37035 -0.52449 3.41376
                  CHANNELS 3 Zrotation Xrotation Yrotation
                  End Site
                  {
                    OFFSET -1.78271 -1.18214 1.43049
                  }
                }
              }
              JOINT rIndex1
              {
                OFFSET -7.75947 0.938293 5.60832
                CHANNELS 3 Zrotation Xrotation Yrotation
                JOINT rIndex2
                {
                  OFFSET -2.54057 -0.884171 1.56538
                  CHANNELS 3 Zrotation Xrotation Yrotation
                  End Site
                  {
                    OFFSET -1.62519 -0.234802 1.16502
                  }
                }
              }
              JOINT rMid1
              {
                OFFSET -8.24714 1.18213 3.41376
                CHANNELS 3 Zrotation Xrotation Yrotation
                JOINT rMid2
                {
                  OFFSET -3.10165 -0.590103 1.0647
                  CHANNELS 3 Zrotation Xrotation Yrotation
                  End Site
                  {
                    OFFSET -2.48547 -0.328903 0.83742
                  }
                }
              }
              JOINT rRing1
              {
                OFFSET -8.82822 0.546677 1.51678
                CHANNELS 3 Zrotation Xrotation Yrotation
                JOINT rRing2
                {
                  OFFSET -2.60934 -0.819778 -0.0198488
                  CHANNELS 3 Zrotation Xrotation Yrotation
                  End Site
                  {
                    OFFSET -2.33842 -0.294052 0.168128
                  }
                }
              }
              JOINT rPinky1
              {
                OFFSET -8.27202 -0.0477905 -0.4584
                CHANNELS 3 Zrotation Xrotation Yrotation
                JOINT rPinky2
                {
                  OFFSET -1.82734 -0.647385 -0.700984
                  CHANNELS 3 Zrotation Xrotation Yrotation
                  End Site
                  {
                    OFFSET -1.69225 -0.51767 -0.607171
                  }
                }
              }
            }
          }
        }
      }
      JOINT lCollar
      {
        OFFSET 2.68224 19.2634 -4.8768
        CHANNELS 3 Zrotation Xrotation Yrotation
        JOINT lShldr
        {
          OFFSET 8.77824 -1.95073 1.46304
          CHANNELS 3 Zrotation Xrotation Yrotation
          JOINT lForeArm
          {
            OFFSET 28.1742 -1.7115 0.48768
            CHANNELS 3 Zrotation Xrotation Yrotation
            JOINT lHand
            {
              OFFSET 22.5879 0.773209 7.07136
              CHANNELS 3 Zrotation Xrotation Yrotation
              JOINT lThumb1
              {
                OFFSET 1.2192 -0.487915 3.41376
                CHANNELS 3 Zrotation Xrotation Yrotation
                JOINT lThumb2
                {
                  OFFSET 3.37035 -0.52449 3.41376
                  CHANNELS 3 Zrotation Xrotation Yrotation
                  End Site
                  {
                    OFFSET 1.78271 -1.18214 1.43049
                  }
                }
              }
              JOINT lIndex1
              {
                OFFSET 7.75947 0.938293 5.60832
                CHANNELS 3 Zrotation Xrotation Yrotation
                JOINT lIndex2
                {
                  OFFSET 2.54057 -0.884171 1.56538
                  CHANNELS 3 Zrotation Xrotation Yrotation
                  End Site
                  {
                    OFFSET 1.62519 -0.234802 1.16502
                  }
                }
              }
              JOINT lMid1
              {
                OFFSET 8.24714 1.18213 3.41376
                CHANNELS 3 Zrotation Xrotation Yrotation
                JOINT lMid2
                {
                  OFFSET 3.10165 -0.590103 1.0647
                  CHANNELS 3 Zrotation Xrotation Yrotation
                  End Site
                  {
                    OFFSET 2.48547 -0.328903 0.83742
                  }
                }
              }
              JOINT lRing1
              {
                OFFSET 8.82822 0.546677 1.51678
                CHANNELS 3 Zrotation Xrotation Yrotation
                JOINT lRing2
                {
                  OFFSET 2.60934 -0.819778 -0.0198488
                  CHANNELS 3 Zrotation Xrotation Yrotation
                  End Site
                  {
                    OFFSET 2.33842 -0.294052 0.168128
                  }
                }
              }
              JOINT lPinky1
              {
                OFFSET 8.27202 -0.0477905 -0.4584
                CHANNELS 3 Zrotation Xrotation Yrotation
                JOINT lPinky2
                {
                  OFFSET 1.82734 -0.647385 -0.700984
                  CHANNELS 3 Zrotation Xrotation Yrotation
                  End Site
                  {
                    OFFSET 1.69225 -0.51767 -0.607171
                  }
                }
              }
            }
          }
        }
      }
    }
  }
  JOINT rButtock
  {
    OFFSET -8.77824 4.35084 1.2192
    CHANNELS 3 Zrotation Xrotation Yrotation
    JOINT rThigh
    {
      OFFSET 0.0 -1.70687 -2.19456
      CHANNELS 3 Zrotation Xrotation Yrotation
      JOINT rShin
      {
        OFFSET 0.0 -36.8199 0.73152
        CHANNELS 3 Zrotation Xrotation Yrotation
        JOINT rFoot
        {
          OFFSET 0.73152 -45.1104 -5.12064
          CHANNELS 3 Zrotation Xrotation Yrotation
          End Site
          {
            OFFSET -1.1221 -3.69964 12.103
          }
        }
      }
    }
  }
  JOINT lButtock
  {
    OFFSET 8.77824 4.35084 1.2192
    CHANNELS 3 Zrotation Xrotation Yrotation
    JOINT lThigh
    {
      OFFSET 0.0 -1.70687 -2.19456
      CHANNELS 3 Zrotation Xrotation Yrotation
      JOINT lShin
      {
        OFFSET 0.0 -36.8199 0.73152
        CHANNELS 3 Zrotation Xrotation Yrotation
        JOINT lFoot
        {
          OFFSET -0.73152 -45.1104 -5.12064
          CHANNELS 3 Zrotation Xrotation Yrotation
          End Site
          {
            OFFSET 1.1221 -3.69964 12.103
          }
        }
      }
    }
  }
}
MOTION
Frames: 4
Frame Time: 0.00833333
-65.036 83.0052 44.63615 -9.6465 -54.3694 7.2743 1.90256 5.56573 -4.33125 -3.04416 -0.74543 -1.55645 1.3982 16.9127 -2.98036 1.61264 -25.3996 -5.54413 -0.0 0.0 0.0 -0.0 0.0 0.0 -3.76651e-14 -2.92827e-13 -2.57994e-13 83.1998 11.1559 3.52451 -7.13121 -2.57226 12.5208 -0.723575 23.4152 3.48942 1.5255e-09 -3.84223e-10 3.25711e-10 2.63698e-09 -6.63903e-10 5.34061e-10 1.52551e-09 -3.8422e-10 3.25694e-10 7.73091 5.47488 0.417314 1.5255e-09 -3.8422e-10 3.25704e-10 2.90554 0.965183 0.102902 1.52551e-09 -3.8422e-10 3.2571e-10 10.2786 0.731801 0.0259123 1.5255e-09 -3.84218e-10 3.25714e-10 2.22167 -0.733487 -0.20892 -3.76767e-14 -2.92842e-13 -2.5815e-13 -81.5941 -1.93627 2.82124 2.68877 -0.76694 -4.64361 0.078422 -7.96449 1.12666 1.84683e-10 -6.24997e-10 -1.66541e-10 3.22395e-10 -1.07913e-09 -2.87498e-10 1.84681e-10 -6.24989e-10 -1.66536e-10 -7.73091 5.47488 -0.417314 1.84685e-10 -6.24988e-10 -1.66537e-10 -2.90554 0.965183 -0.102902 1.84668e-10 -6.24987e-10 -1.66536e-10 -10.2786 0.731801 -0.0259123 1.84678e-10 -6.2499e-10 -1.6654e-10 -2.22167 -0.733487 0.20892 -2.03217e-16 0.0 -3.88251e-19 17.3551 -12.3175 8.65965 -0.765868 51.8655 0.760726 -0.18865 7.5321 -8.59697 2.03217e-16 0.0 3.88251e-19 7.31801 -23.2397 1.14335 0.149537 33.1401 0.155174 -1.35664 -20.7663 -4.82279
-66.327 82.728 45.564249999999994 -8.9502 -55.459 6.5625 0.862313 5.63279 -4.14506 -3.02387 -0.791192 -1.55162 1.53372 16.9763 -2.72887 1.39947 -25.3635 -5.09553 -0.0 0.0 0.0 -0.0 0.0 0.0 -4.61017e-14 -4.26735e-13 -4.84307e-13 83.2476 11.3729 3.39133 -7.22134 -2.61651 12.6839 -0.69982 23.0589 3.42985 2.2952e-09 -2.96568e-10 -3.6568e-10 3.95045e-09 -5.12985e-10 -6.73014e-10 2.29521e-09 -2.96566e-10 -3.65691e-10 7.73091 5.47488 0.417314 2.2952e-09 -2.96564e-10 -3.65683e-10 2.90554 0.965183 0.102902 2.2952e-09 -2.96565e-10 -3.65677e-10 10.2786 0.731801 0.0259123 2.2952e-09 -2.96562e-10 -3.65669e-10 2.22167 -0.733487 -0.20892 -4.61444e-14 -4.26741e-13 -4.844e-13 -81.4845 -2.73705 2.86583 2.4385 -0.685124 -4.20853 0.0694301 -7.48774 1.05843 1.47884e-10 -8.04995e-10 7.38171e-10 2.53673e-10 -1.39013e-09 1.27562e-09 1.4788e-10 -8.04985e-10 7.38177e-10 -7.73091 5.47488 -0.417314 1.47887e-10 -8.04985e-10 7.38177e-10 -2.90554 0.965183 -0.102902 1.47868e-10 -8.04984e-10 7.38178e-10 -10.2786 0.731801 -0.0259123 1.47878e-10 -8.04988e-10 7.38174e-10 -2.22167 -0.733487 0.20892 -2.03217e-16 0.0 -3.88251e-19 16.8656 -14.9498 9.05568 -0.977695 56.4249 0.965679 0.15787 9.88497 -9.3022 2.03217e-16 0.0 3.88251e-19 6.74531 -21.9749 1.3766 0.139775 33.7279 0.137472 -1.7504 -20.5309 -6.05709
-67.618 82.4814 46.53315 -7.6823 -56.554 5.2287 -0.55624 5.86025 -3.93728 -2.88879 -0.93201 -1.54475 1.64791 17.0171 -2.48548 1.28036 -25.3675 -4.64266 -0.0 0.0 0.0 -0.0 0.0 0.0 -5.00891e-14 -5.35924e-13 -6.36161e-13 83.3256 11.4483 3.18209 -7.27494 -2.6428 12.7813 -0.686348 22.8504 3.39524 2.71909e-09 -3.06281e-10 -6.92836e-10 4.67424e-09 -5.29871e-10 -1.24531e-09 2.71909e-09 -3.0628e-10 -6.92843e-10 7.73091 5.47488 0.417314 2.71909e-09 -3.06277e-10 -6.92836e-10 2.90554 0.965183 0.102902 2.71909e-09 -3.06278e-10 -6.92831e-10 10.2786 0.731801 0.0259123 2.71909e-09 -3.06275e-10 -6.9282e-10 2.22167 -0.733487 -0.20892 -5.01514e-14 -5.35924e-13 -6.3621e-13 -81.3594 -3.49987 2.92106 2.27879 -0.632869 -3.93218 0.0599793 -6.97134 0.984671 9.0232e-11 -1.02853e-09 1.07478e-09 1.51648e-10 -1.77638e-09 1.85698e-09 9.02276e-11 -1.02852e-09 1.07479e-09 -7.73091 5.47488 -0.417314 9.02348e-11 -1.02853e-09 1.07479e-09 -2.90554 0.965183 -0.102902 9.02149e-11 -1.02852e-09 1.07479e-09 -10.2786 0.731801 -0.0259123 9.02266e-11 -1.02853e-09 1.07479e-09 -2.22167 -0.733487 0.20892 -2.03217e-16 0.0 -3.88251e-19 16.0617 -17.4834 9.36374 -1.22165 60.6109 1.21826 0.365904 11.1335 -10.1245 2.03217e-16 0.0 3.88251e-19 5.99096 -20.4746 1.94842 0.11944 33.8887 0.106376 -2.02294 -20.2079 -7.04922
-68.90899999999999 82.2879 47.55385 -5.7084 -57.629 3.1718 -2.5656 6.36437 -3.69671 -2.58108 -1.22445 -1.5385 1.73143 17.0246 -2.2486 1.30381 -25.3926 -4.17194 -0.0 0.0 0.0 -0.0 0.0 0.0 -5.49004e-14 -6.8506e-13 -7.04929e-13 83.4481 11.3753 2.86209 -7.28664 -2.64832 12.8027 -0.68199 22.7708 3.38238 2.67916e-09 -5.37223e-10 -3.21325e-10 4.61078e-09 -9.27529e-10 -6.0373e-10 2.67916e-09 -5.37221e-10 -3.21331e-10 7.73091 5.47488 0.417314 2.67916e-09 -5.37218e-10 -3.21325e-10 2.90554 0.965183 0.102902 2.67916e-09 -5.3722e-10 -3.2132e-10 10.2786 0.731801 0.0259123 2.67915e-09 -5.37217e-10 -3.2131e-10 2.22167 -0.733487 -0.20892 -5.49659e-14 -6.85058e-13 -7.0496e-13 -81.2104 -4.21269 3.01212 2.24041 -0.61984 -3.86634 0.0498541 -6.38946 0.90171 3.07913e-11 -1.46739e-09 3.34041e-10 5.11066e-11 -2.53473e-09 5.76526e-10 3.07856e-11 -1.46738e-09 3.34049e-10 -7.73091 5.47488 -0.417314 3.07929e-11 -1.46738e-09 3.34047e-10 -2.90554 0.965183 -0.102902 3.07741e-11 -1.46738e-09 3.34047e-10 -10.2786 0.731801 -0.0259123 3.07872e-11 -1.46739e-09 3.34044e-10 -2.22167 -0.733487 0.20892 -2.03217e-16 0.0 -3.88251e-19 14.7704 -19.8781 9.5514 -1.52027 64.5164 1.54494 0.3281 10.9531 -11.1564 2.03217e-16 0.0 3.88251e-19 4.94521 -18.6286 3.04032 0.0772173 33.4779 0.0665557 -2.15722 -19.7292 -7.80938
